<svg width="1920" height="1080" viewBox="0 0 1920 1080" fill="none" xmlns="http://www.w3.org/2000/svg">
  <defs>
    <radialGradient id="spaceGrad" cx="50%" cy="50%" r="50%">
      <stop offset="0%" style="stop-color:#1a2332;stop-opacity:1" />
      <stop offset="50%" style="stop-color:#0d1117;stop-opacity:1" />
      <stop offset="100%" style="stop-color:#000000;stop-opacity:1" />
    </radialGradient>
  </defs>
  
  <!-- Dark space background -->
  <rect width="1920" height="1080" fill="url(#spaceGrad)"/>
  
  <!-- Stars - small -->
  <circle cx="100" cy="150" r="1" fill="white" opacity="0.8"/>
  <circle cx="250" cy="200" r="1" fill="white" opacity="0.6"/>
  <circle cx="400" cy="100" r="1" fill="white" opacity="0.9"/>
  <circle cx="600" cy="250" r="1" fill="white" opacity="0.7"/>
  <circle cx="800" cy="180" r="1" fill="white" opacity="0.8"/>
  <circle cx="1000" cy="120" r="1" fill="white" opacity="0.6"/>
  <circle cx="1200" cy="220" r="1" fill="white" opacity="0.9"/>
  <circle cx="1400" cy="160" r="1" fill="white" opacity="0.7"/>
  <circle cx="1600" cy="200" r="1" fill="white" opacity="0.8"/>
  <circle cx="1800" cy="140" r="1" fill="white" opacity="0.6"/>
  
  <circle cx="150" cy="400" r="1" fill="white" opacity="0.7"/>
  <circle cx="350" cy="450" r="1" fill="white" opacity="0.8"/>
  <circle cx="550" cy="380" r="1" fill="white" opacity="0.6"/>
  <circle cx="750" cy="420" r="1" fill="white" opacity="0.9"/>
  <circle cx="950" cy="460" r="1" fill="white" opacity="0.7"/>
  <circle cx="1150" cy="400" r="1" fill="white" opacity="0.8"/>
  <circle cx="1350" cy="440" r="1" fill="white" opacity="0.6"/>
  <circle cx="1550" cy="390" r="1" fill="white" opacity="0.9"/>
  <circle cx="1750" cy="430" r="1" fill="white" opacity="0.7"/>
  
  <circle cx="200" cy="650" r="1" fill="white" opacity="0.8"/>
  <circle cx="400" cy="700" r="1" fill="white" opacity="0.6"/>
  <circle cx="600" cy="620" r="1" fill="white" opacity="0.9"/>
  <circle cx="800" cy="680" r="1" fill="white" opacity="0.7"/>
  <circle cx="1000" cy="640" r="1" fill="white" opacity="0.8"/>
  <circle cx="1200" cy="690" r="1" fill="white" opacity="0.6"/>
  <circle cx="1400" cy="630" r="1" fill="white" opacity="0.9"/>
  <circle cx="1600" cy="670" r="1" fill="white" opacity="0.7"/>
  <circle cx="1800" cy="650" r="1" fill="white" opacity="0.8"/>
  
  <circle cx="100" cy="900" r="1" fill="white" opacity="0.6"/>
  <circle cx="300" cy="950" r="1" fill="white" opacity="0.8"/>
  <circle cx="500" cy="880" r="1" fill="white" opacity="0.7"/>
  <circle cx="700" cy="920" r="1" fill="white" opacity="0.9"/>
  <circle cx="900" cy="960" r="1" fill="white" opacity="0.6"/>
  <circle cx="1100" cy="900" r="1" fill="white" opacity="0.8"/>
  <circle cx="1300" cy="940" r="1" fill="white" opacity="0.7"/>
  <circle cx="1500" cy="890" r="1" fill="white" opacity="0.9"/>
  <circle cx="1700" cy="930" r="1" fill="white" opacity="0.6"/>
  
  <!-- Larger stars -->
  <circle cx="300" cy="300" r="2" fill="white" opacity="0.9"/>
  <circle cx="700" cy="500" r="2" fill="white" opacity="0.8"/>
  <circle cx="1100" cy="250" r="2" fill="white" opacity="0.9"/>
  <circle cx="1500" cy="550" r="2" fill="white" opacity="0.8"/>
  <circle cx="500" cy="750" r="2" fill="white" opacity="0.9"/>
  <circle cx="1300" cy="800" r="2" fill="white" opacity="0.8"/>
  
  <!-- Nebula effect -->
  <ellipse cx="960" cy="540" rx="400" ry="300" fill="#1e3a5f" opacity="0.2"/>
  <ellipse cx="1200" cy="400" rx="300" ry="200" fill="#2a4a6f" opacity="0.15"/>
</svg>
